<?xml version="1.0" standalone="no"?>
<!DOCTYPE svg PUBLIC "-//W3C//DTD SVG 20010904//EN"
 "http://www.w3.org/TR/2001/REC-SVG-20010904/DTD/svg10.dtd">
<svg version="1.0" xmlns="http://www.w3.org/2000/svg"
 width="1890.000000pt" height="1890.000000pt" viewBox="0 0 1890.000000 1890.000000"
 preserveAspectRatio="xMidYMid meet">
<metadata>
Created by potrace 1.14, written by Peter Selinger 2001-2017
</metadata>
<g transform="translate(0.000000,1890.000000) scale(0.100000,-0.100000)"
fill="#000000" stroke="none">
<path d="M11239 14687 c-88 -72 -102 -83 -274 -213 -71 -54 -139 -106 -150
-115 -11 -9 -63 -53 -116 -96 -53 -44 -116 -97 -140 -119 -24 -21 -68 -61 -99
-89 -30 -27 -144 -138 -253 -246 l-198 -197 112 -147 c62 -81 122 -153 135
-161 15 -11 35 -13 68 -9 65 9 253 9 371 1 116 -9 148 -12 280 -32 56 -8 125
-26 130 -33 7 -12 -103 -177 -174 -261 -35 -41 -97 -110 -138 -154 -55 -58
-72 -81 -63 -90 6 -6 14 -11 18 -11 13 0 146 -58 202 -89 113 -61 231 -147
325 -238 27 -27 55 -46 62 -44 6 3 57 19 112 37 56 17 101 35 101 40 0 5 -22
43 -50 85 -27 42 -51 86 -51 98 -1 11 -3 31 -4 43 -1 12 15 60 35 106 78 175
85 190 121 277 12 30 24 56 25 58 7 10 85 -46 99 -71 16 -27 17 -82 1 -142 -3
-11 -13 -51 -21 -89 -14 -64 -14 -69 2 -82 18 -13 78 -30 147 -40 42 -6 66
-10 111 -20 17 -3 27 -3 23 1 -10 10 90 283 143 389 20 39 91 137 132 181 35
38 109 140 118 162 5 13 6 29 3 37 -6 16 -181 77 -319 111 -49 13 -91 22 -92
21 -1 -1 6 -28 16 -61 31 -98 18 -157 -47 -227 -32 -35 -54 -35 -163 -2 l-86
26 59 137 c150 342 214 533 259 771 26 142 33 199 33 304 l1 90 -220 53 c-260
62 -257 61 -292 69 -16 3 -61 14 -100 25 -40 10 -83 19 -95 18 -13 0 -57 -28
-99 -62z m0 -642 c49 -7 154 -53 187 -82 63 -54 74 -136 31 -225 -31 -63 -48
-84 -97 -120 -121 -89 -371 -107 -588 -44 -175 51 -219 116 -158 235 52 100
250 214 411 235 27 4 51 8 52 10 5 4 115 -1 162 -9z"/>
<path d="M8457 14502 c-6 -9 22 -115 33 -126 4 -4 30 -12 57 -17 66 -12 96
-26 111 -50 7 -11 24 -75 37 -142 25 -127 84 -379 106 -457 7 -25 13 -49 15
-55 11 -52 62 -227 86 -294 16 -45 28 -85 26 -86 -2 -2 -20 0 -41 5 -43 9 -77
3 -77 -14 0 -10 15 -94 25 -146 2 -8 4 -19 4 -23 1 -9 33 -5 41 4 16 21 190
19 190 -2 0 -4 -8 -8 -17 -7 -10 0 -33 -2 -50 -5 -18 -2 -30 0 -27 4 3 5 -2 9
-11 9 -9 0 -14 -4 -10 -9 3 -6 -6 -6 -24 -1 -25 7 -29 6 -24 -8 5 -11 3 -13
-8 -6 -19 11 -39 14 -39 5 0 -4 -7 -8 -15 -8 -8 0 -15 4 -15 8 0 5 -10 5 -22
1 -13 -5 -40 -7 -60 -6 -23 1 -35 -2 -32 -8 4 -6 -3 -5 -15 1 -16 9 -21 9 -21
0 0 -8 -4 -8 -15 1 -12 10 -15 10 -15 -4 0 -17 -12 -21 -24 -9 -11 12 -37 12
-29 1 4 -7 -2 -9 -15 -6 -12 4 -22 3 -22 -2 0 -4 -8 -7 -17 -7 -37 0 -44 -3
-37 -15 5 -9 2 -9 -9 1 -9 7 -17 9 -17 3 0 -5 -7 -13 -16 -16 -14 -5 -15 -4
-4 9 7 8 9 15 6 15 -4 0 3 10 14 23 71 74 98 208 76 372 -31 238 -100 353
-229 386 -44 11 -184 8 -243 -5 -87 -19 -188 -22 -241 -7 -72 20 -111 58 -235
228 -103 142 -112 166 -83 223 41 80 292 124 380 66 37 -24 28 -45 -37 -88
-32 -21 -63 -48 -70 -61 -31 -57 -12 -128 45 -162 66 -40 101 -48 212 -49 101
-1 115 1 167 27 49 24 59 34 74 72 20 54 14 106 -20 173 -92 179 -371 250
-701 178 -91 -19 -191 -72 -245 -128 -59 -62 -75 -104 -75 -198 1 -145 77
-322 179 -413 56 -49 94 -62 181 -61 68 0 94 6 175 39 116 47 169 49 231 12
64 -38 97 -87 210 -316 67 -134 79 -196 53 -257 -24 -58 -118 -112 -207 -118
-44 -4 -95 35 -93 71 1 6 17 33 37 60 58 76 72 142 49 225 -38 134 -213 176
-382 92 -113 -57 -126 -176 -36 -311 54 -79 178 -166 278 -194 25 -7 50 -17
55 -22 7 -7 4 -8 -7 -4 -10 4 -18 3 -18 -1 0 -4 -8 -8 -17 -9 -37 -3 -58 -11
-55 -22 1 -8 -3 -9 -15 -2 -19 9 -58 -9 -48 -23 3 -3 -1 -2 -7 4 -16 14 -31
13 -22 -1 4 -7 1 -10 -7 -7 -8 3 -20 -2 -27 -11 -10 -12 -12 -13 -6 -1 7 13 6
13 -9 1 -10 -8 -20 -11 -23 -8 -9 9 -33 -17 -26 -28 3 -5 2 -7 -3 -3 -4 4 -15
2 -23 -5 -13 -9 -14 -9 -8 1 12 20 -4 14 -26 -10 -11 -13 -16 -16 -12 -8 7 13
5 13 -9 1 -9 -7 -17 -10 -17 -6 0 4 -9 -3 -21 -16 -11 -13 -18 -18 -14 -11 3
6 2 12 -3 12 -6 0 -13 -8 -16 -17 -6 -15 -8 -15 -16 -3 -8 13 -10 12 -10 -3 0
-10 -5 -15 -11 -12 -6 4 -17 -1 -25 -11 -9 -11 -13 -13 -9 -4 4 10 2 9 -8 -2
-16 -20 -32 -25 -21 -6 5 7 3 8 -5 4 -7 -5 -10 -15 -6 -23 4 -13 3 -14 -10 -3
-10 8 -15 9 -15 1 0 -6 -7 -11 -16 -11 -8 0 -12 -4 -9 -10 3 -5 1 -10 -6 -10
-20 0 -89 -33 -89 -43 0 -4 -4 -5 -10 -2 -5 3 -10 2 -10 -3 0 -10 -32 -24 -60
-26 -8 -1 -14 -8 -12 -16 3 -11 0 -11 -14 1 -16 12 -17 12 -11 -3 6 -17 -8
-24 -36 -19 -5 1 -6 -2 -4 -6 5 -8 -11 -27 -25 -31 -28 -8 -37 -15 -32 -23 3
-5 -2 -6 -10 -3 -9 3 -16 1 -16 -6 0 -6 -4 -9 -9 -6 -5 3 -15 -2 -22 -11 -12
-14 -12 -16 0 -8 9 5 12 4 7 -3 -4 -6 -14 -8 -24 -5 -9 3 -14 2 -10 -2 5 -5
-4 -16 -20 -25 -19 -12 -29 -14 -34 -6 -5 6 -8 2 -8 -11 0 -16 -4 -21 -15 -16
-9 3 -15 2 -13 -3 2 -5 -1 -10 -5 -11 -5 -1 -15 -10 -24 -20 -8 -10 -11 -11
-7 -3 4 8 -3 5 -15 -7 -12 -13 -29 -23 -37 -23 -9 0 -12 -5 -8 -11 4 -8 -1 -9
-17 -4 -13 4 -21 4 -17 0 12 -13 -16 -34 -30 -23 -9 8 -11 7 -6 -7 4 -11 3
-16 -2 -13 -5 4 -18 -1 -29 -9 -20 -16 -20 -16 0 -9 15 5 17 4 9 -4 -6 -6 -20
-12 -32 -13 -11 0 -18 -5 -16 -9 3 -4 0 -8 -6 -8 -6 0 -8 -4 -5 -10 3 -5 -1
-10 -10 -10 -10 0 -13 -5 -9 -12 4 -7 3 -8 -4 -4 -13 8 -53 -24 -46 -36 3 -5
0 -7 -8 -6 -7 2 -12 -3 -10 -11 2 -9 -4 -12 -19 -8 -11 3 -18 3 -15 0 6 -7
-19 -33 -32 -33 -6 0 -21 -13 -35 -29 -14 -17 -28 -27 -31 -24 -3 4 -6 -2 -6
-12 0 -10 -3 -16 -6 -12 -7 7 -50 -35 -47 -45 2 -5 -3 -8 -11 -8 -8 0 -17 -7
-20 -16 -3 -9 -11 -12 -18 -8 -8 5 -9 2 -5 -10 4 -9 3 -15 -1 -13 -10 5 -42
-30 -34 -38 4 -3 -2 -3 -12 1 -12 5 -17 4 -13 -3 3 -5 -4 -16 -18 -23 -13 -7
-21 -18 -18 -26 3 -8 0 -14 -7 -14 -13 0 -61 -35 -61 -44 3 -25 0 -27 -16 -15
-9 8 -14 9 -10 2 7 -11 -10 -36 -61 -90 -12 -13 -20 -28 -17 -34 3 -5 0 -6 -8
-3 -8 3 -18 0 -23 -7 -4 -8 -3 -10 4 -5 8 4 10 2 6 -8 -3 -9 -12 -12 -22 -9
-9 4 -14 3 -10 -1 8 -10 -23 -47 -34 -40 -4 3 -5 -2 -2 -10 4 -11 0 -16 -11
-16 -9 0 -14 -4 -11 -9 3 -4 -2 -17 -10 -27 -9 -10 -12 -12 -8 -4 9 19 -1 9
-55 -57 -23 -29 -43 -61 -44 -72 -1 -11 -3 -18 -5 -16 -8 8 -38 -31 -34 -44 3
-8 1 -12 -5 -8 -10 6 -14 1 -24 -28 -5 -17 -24 -33 -31 -28 -4 2 -5 -4 -1 -13
5 -14 3 -16 -11 -11 -9 4 -15 3 -11 -2 8 -14 -5 -41 -20 -41 -7 0 -16 -7 -19
-16 -5 -12 -3 -14 7 -8 7 5 5 1 -6 -8 -10 -10 -16 -21 -14 -25 7 -11 -19 -33
-29 -25 -5 4 -2 -1 5 -10 12 -16 11 -18 -3 -18 -10 0 -14 -4 -11 -10 3 -5 -1
-10 -9 -10 -16 0 -19 -7 -19 -42 0 -9 -5 -16 -11 -15 -6 1 -10 -6 -8 -15 2
-10 -2 -18 -7 -18 -6 0 -15 -10 -22 -21 -9 -17 -8 -20 3 -14 7 3 4 -2 -8 -12
-11 -10 -18 -25 -16 -32 3 -9 0 -11 -8 -6 -10 6 -12 4 -7 -9 4 -10 3 -15 -3
-11 -6 3 -10 -1 -10 -9 0 -8 -4 -17 -8 -20 -9 -5 -8 188 2 297 l7 77 -28 1
c-37 2 -77 6 -133 15 -53 8 -58 9 -130 18 -30 4 -62 9 -70 11 -8 2 -40 7 -70
10 -30 3 -62 8 -70 10 -8 3 -78 14 -155 26 -77 11 -147 23 -155 24 -8 2 -26 4
-39 4 -24 1 -24 1 -5 22 10 12 41 39 67 60 54 43 78 45 192 14 33 -9 68 -18
78 -20 10 -2 27 -7 38 -10 44 -14 68 14 83 95 2 14 6 31 8 38 2 9 -50 31 -167
71 -93 32 -199 70 -234 84 -36 15 -69 27 -76 27 -14 0 -60 -62 -161 -213 l-78
-118 -40 7 c-23 3 -104 22 -181 40 -378 92 -525 177 -525 304 0 75 116 222
215 273 86 43 195 65 262 52 41 -7 36 -15 -29 -39 -105 -39 -197 -139 -199
-218 -3 -120 92 -197 251 -203 182 -6 480 175 480 291 0 77 -107 154 -333 238
-85 32 -241 78 -310 92 -52 10 -152 25 -195 29 l-47 4 -50 -102 c-94 -193
-321 -550 -448 -707 -73 -90 -161 -168 -219 -194 l-43 -19 45 -12 c25 -7 101
-27 169 -45 l123 -32 29 28 c37 35 59 83 59 128 l0 35 43 -18 c114 -49 410
-141 607 -190 118 -29 347 -79 395 -87 22 -3 43 -8 46 -9 3 -2 28 -7 55 -11
27 -3 52 -8 55 -10 5 -3 21 -6 99 -19 19 -3 42 -8 50 -10 8 -2 31 -6 50 -9 19
-3 46 -8 60 -11 14 -2 36 -7 50 -10 14 -2 41 -7 60 -10 44 -7 131 -23 190 -36
58 -13 97 -50 105 -100 7 -41 15 -46 113 -65 31 -6 55 -24 32 -24 -6 0 -8 -4
-5 -10 3 -5 1 -10 -5 -10 -7 0 -10 -7 -6 -15 3 -10 -1 -15 -12 -15 -14 0 -15
-2 -2 -10 12 -8 12 -10 -3 -16 -9 -3 -14 -10 -11 -15 3 -5 1 -9 -5 -9 -6 0 -7
-7 -4 -17 5 -11 3 -14 -6 -8 -10 5 -11 2 -6 -14 4 -12 2 -21 -4 -21 -6 0 -11
-9 -11 -19 0 -11 -5 -23 -10 -26 -6 -4 -8 -10 -5 -15 3 -5 -2 -16 -12 -25 -9
-10 -18 -29 -19 -43 -2 -14 -9 -29 -16 -33 -10 -7 -10 -9 2 -9 12 -1 11 -3 -3
-11 -9 -6 -15 -15 -11 -20 3 -6 -2 -16 -12 -23 -12 -9 -14 -15 -5 -20 8 -5 7
-11 -4 -22 -8 -9 -13 -19 -10 -24 3 -5 1 -11 -5 -15 -6 -4 -8 -11 -5 -16 4 -5
2 -9 -4 -9 -6 0 -7 -7 -4 -17 5 -12 3 -14 -7 -8 -10 6 -12 3 -8 -13 4 -12 2
-22 -2 -22 -5 0 -7 -11 -6 -25 2 -13 -1 -22 -5 -19 -5 3 -9 -2 -9 -10 0 -9 -4
-16 -8 -16 -5 0 -8 -10 -7 -22 3 -30 -5 -49 -16 -42 -5 3 -9 1 -9 -5 0 -5 6
-12 13 -14 9 -4 9 -6 0 -6 -7 -1 -10 -8 -7 -16 5 -11 2 -14 -12 -9 -15 6 -17
4 -7 -6 9 -9 9 -18 1 -33 -7 -14 -7 -22 2 -27 8 -5 7 -9 -4 -13 -9 -4 -15 -10
-15 -14 1 -4 0 -15 -3 -23 -24 -71 -25 -79 -14 -91 8 -9 8 -10 -3 -4 -11 6
-13 4 -8 -8 3 -9 0 -18 -9 -21 -8 -3 -14 -11 -14 -18 0 -9 3 -8 10 2 6 9 10
10 10 3 0 -6 -4 -14 -8 -17 -5 -3 -8 -23 -8 -45 1 -22 -2 -37 -6 -35 -3 2 -9
0 -13 -6 -3 -5 -1 -10 6 -10 8 0 9 -4 0 -13 -6 -8 -9 -23 -6 -36 2 -14 0 -19
-7 -15 -7 5 -9 -2 -6 -20 3 -15 1 -26 -6 -26 -6 0 -4 -5 4 -10 8 -5 10 -10 4
-10 -6 0 -11 -6 -12 -12 0 -7 -4 -24 -8 -37 -6 -19 -4 -22 7 -16 12 8 12 6 1
-8 -8 -9 -11 -21 -8 -26 4 -5 2 -13 -4 -16 -8 -5 -7 -11 1 -21 10 -12 6 -17
-11 -16 -3 0 -5 -31 -4 -69 0 -38 -2 -69 -6 -69 -3 0 -7 -26 -8 -57 -3 -173
-5 -193 -16 -193 -8 0 -8 -2 0 -8 6 -4 11 -25 11 -47 0 -22 -5 -43 -11 -47 -7
-5 -7 -8 -1 -8 15 0 17 -50 2 -50 -7 0 -8 -3 -2 -8 14 -10 16 -84 2 -75 -6 4
-7 1 -1 -8 12 -21 13 -59 0 -59 -8 0 -8 -2 0 -8 6 -4 12 -23 12 -42 3 -58 9
-107 16 -119 4 -6 2 -11 -4 -11 -6 0 -8 -5 -5 -11 4 -5 9 -65 11 -131 2 -67 8
-126 14 -132 5 -5 10 -15 10 -20 0 -6 -5 -4 -10 4 -6 9 -10 10 -10 3 0 -6 5
-15 11 -18 6 -4 8 -13 5 -21 -3 -8 -2 -14 3 -14 4 0 8 -23 7 -50 -1 -28 2 -50
5 -50 4 0 10 -7 13 -16 3 -8 2 -12 -4 -9 -6 3 -10 1 -10 -4 0 -6 4 -11 8 -11
5 0 8 -16 7 -36 0 -19 5 -40 12 -45 6 -6 9 -17 6 -25 -3 -8 0 -21 7 -29 10
-12 10 -15 -1 -15 -10 0 -11 -2 -2 -8 6 -4 14 -21 17 -37 2 -17 5 -30 6 -30 1
0 4 -11 7 -25 8 -41 11 -55 14 -55 2 0 8 -33 13 -74 2 -18 8 -36 13 -40 5 -3
8 -13 8 -21 0 -8 3 -18 7 -21 4 -3 9 -17 10 -31 1 -15 6 -24 10 -22 4 3 8 -11
8 -30 0 -20 5 -36 10 -36 6 0 10 -12 10 -26 0 -14 3 -23 8 -21 4 3 8 -5 8 -16
3 -32 8 -51 17 -58 4 -3 8 -22 9 -42 1 -23 6 -37 14 -37 7 0 11 -8 9 -20 -2
-11 0 -22 5 -25 5 -3 7 -12 3 -20 -3 -8 0 -15 7 -15 7 0 10 -7 6 -16 -3 -8 -2
-12 4 -9 10 6 14 -7 11 -32 -1 -6 3 -14 9 -18 5 -3 10 -15 10 -26 0 -10 4 -19
9 -19 9 0 25 -51 21 -66 -1 -4 4 -10 11 -15 7 -4 14 -18 16 -30 2 -13 8 -26
14 -30 8 -4 7 -8 -2 -12 -10 -4 -11 -6 -1 -6 14 -1 36 -48 33 -70 -1 -7 2 -10
8 -6 7 3 11 -2 11 -15 0 -11 7 -23 15 -26 8 -4 13 -10 10 -14 -3 -5 6 -29 19
-54 14 -26 19 -44 13 -40 -7 3 -4 -1 5 -9 10 -8 15 -17 11 -20 -3 -4 -1 -7 5
-7 6 0 9 -9 7 -20 -2 -11 0 -19 5 -17 4 1 8 0 7 -3 -2 -15 26 -50 35 -44 7 5
9 0 6 -14 -4 -13 0 -26 9 -34 17 -14 53 -21 53 -10 0 4 107 6 237 6 309 -2
296 -2 287 -16 -5 -8 0 -7 11 2 17 14 18 13 12 -4 -5 -14 -3 -17 8 -13 8 4 17
1 21 -5 4 -7 3 -8 -4 -4 -7 4 -12 3 -12 -2 0 -10 29 -26 41 -24 4 1 5 -8 2
-18 -4 -15 0 -20 16 -20 14 0 21 -7 22 -20 1 -11 3 -24 4 -30 1 -5 3 -15 4
-21 1 -8 5 -8 14 -1 9 7 17 4 29 -13 17 -23 17 -23 -6 -21 -17 2 -23 -1 -19
-10 3 -8 10 -11 16 -7 6 3 7 1 3 -5 -4 -6 -14 -8 -23 -5 -11 4 -14 3 -9 -5 4
-7 3 -12 -3 -12 -5 0 -8 -9 -6 -20 2 -11 0 -18 -4 -15 -5 3 -11 -2 -15 -10 -3
-8 -1 -15 5 -15 6 0 6 -7 -1 -19 -7 -13 -7 -22 0 -26 5 -3 10 -18 10 -32 0
-17 4 -23 13 -20 10 4 13 -3 12 -24 -1 -16 2 -26 8 -22 6 4 8 -2 5 -15 -4 -16
-2 -19 10 -15 10 4 13 2 8 -5 -4 -7 -2 -12 4 -12 6 0 8 -5 5 -11 -4 -5 1 -20
12 -31 18 -21 18 -21 -2 -15 -18 6 -18 5 3 -12 13 -12 18 -22 12 -26 -15 -9
-1 -27 16 -21 12 5 12 2 3 -15 -8 -15 -8 -19 0 -15 7 4 11 -1 11 -13 0 -12 5
-21 10 -21 6 0 10 -7 10 -16 0 -9 5 -12 12 -8 7 5 9 2 5 -9 -3 -8 1 -21 9 -27
8 -7 14 -21 14 -32 0 -11 9 -22 20 -25 11 -3 20 -14 20 -24 0 -31 1 -33 16
-50 8 -9 11 -20 7 -24 -5 -5 1 -3 12 5 11 8 17 10 13 6 -4 -5 -2 -16 5 -24 10
-13 9 -14 -1 -8 -11 7 -12 4 -3 -13 7 -11 14 -21 17 -21 3 0 2 6 -2 13 -4 6 2
3 13 -8 11 -11 18 -24 15 -29 -3 -5 2 -7 11 -3 11 4 14 2 11 -7 -3 -8 4 -20
15 -28 12 -8 18 -18 14 -21 -3 -4 1 -7 11 -7 9 0 14 -4 11 -10 -3 -5 -1 -10 4
-10 6 0 11 -7 11 -16 0 -8 5 -12 10 -9 6 3 13 -1 16 -10 9 -23 115 -126 124
-120 4 3 13 -8 20 -24 12 -31 63 -81 81 -81 5 0 8 -4 5 -9 -3 -5 5 -12 19 -15
14 -4 25 -13 25 -20 0 -8 6 -17 13 -19 9 -4 9 -6 -1 -6 -10 -1 -10 -4 0 -15 7
-8 17 -11 22 -8 5 3 6 -3 2 -13 -5 -15 -4 -16 9 -5 11 9 15 9 15 1 0 -7 4 -9
10 -6 5 3 10 -1 10 -9 0 -9 9 -16 20 -16 11 0 20 -7 20 -16 0 -8 5 -12 10 -9
6 3 10 1 10 -5 0 -6 5 -8 10 -5 6 3 10 -2 10 -12 0 -15 2 -16 10 -3 8 13 10
13 10 -2 0 -9 9 -20 20 -23 11 -3 20 -11 20 -16 0 -5 8 -9 17 -9 9 0 14 -3 10
-6 -8 -8 16 -33 26 -27 4 2 7 1 6 -4 -4 -21 2 -43 12 -43 5 0 7 5 3 12 -4 7
-3 8 4 4 6 -4 8 -14 5 -23 -5 -12 -2 -15 10 -10 9 3 19 1 23 -5 4 -6 3 -8 -4
-4 -6 3 -13 3 -16 -2 -2 -4 4 -9 16 -9 11 -1 28 -11 37 -22 10 -11 21 -18 25
-14 3 3 6 1 6 -6 0 -8 7 -11 15 -7 13 5 19 -5 16 -26 0 -4 6 -5 14 -2 9 4 15
0 15 -10 0 -9 5 -16 11 -16 5 0 7 6 3 13 -4 6 2 4 13 -6 11 -9 24 -14 28 -10
5 5 3 0 -4 -10 -12 -15 -12 -17 2 -12 9 4 21 -3 31 -17 10 -13 16 -17 16 -8 0
9 5 8 15 -6 8 -10 15 -14 15 -9 0 6 4 4 9 -3 4 -7 17 -14 28 -15 13 0 19 -6
16 -14 -3 -8 -2 -13 3 -11 15 4 54 -13 54 -23 0 -5 3 -8 8 -8 21 4 32 -2 26
-13 -5 -8 -2 -9 9 -5 10 4 17 1 17 -5 0 -6 3 -8 7 -5 3 4 12 -1 20 -11 9 -10
12 -11 7 -2 -6 11 -2 10 13 -3 11 -9 23 -17 27 -17 12 0 36 -27 29 -34 -12
-12 13 -6 26 6 11 11 12 10 6 -1 -5 -9 -3 -12 6 -9 8 3 23 -2 33 -11 16 -13
18 -13 11 -1 -4 8 2 5 14 -8 12 -12 26 -20 32 -17 5 4 9 0 9 -7 0 -8 10 -15
22 -15 13 -1 28 -9 34 -18 9 -12 13 -13 17 -3 3 8 6 5 6 -7 1 -17 3 -17 11 -5
6 10 10 11 10 3 0 -7 9 -13 20 -13 11 0 20 -5 20 -11 0 -6 7 -9 15 -6 8 4 17
1 21 -5 5 -7 2 -8 -6 -3 -9 5 -11 4 -6 -4 4 -6 12 -9 17 -5 6 3 20 -2 31 -13
12 -10 18 -12 14 -5 -4 6 -2 12 3 12 6 0 11 -5 11 -11 0 -5 5 -7 10 -4 6 3 10
1 10 -5 0 -6 4 -9 9 -6 5 4 11 1 13 -4 2 -6 13 -12 26 -13 12 0 22 -4 22 -8 0
-3 10 -6 23 -5 12 0 30 -7 40 -16 20 -21 41 -24 32 -5 -4 6 0 4 8 -6 11 -14
16 -15 20 -5 3 8 6 5 6 -6 1 -20 1 -20 16 0 12 14 14 15 9 2 -4 -13 -1 -15 18
-11 18 4 20 3 8 -6 -13 -9 -13 -11 0 -11 9 0 22 6 29 13 10 10 11 9 5 -6 -5
-13 -2 -16 12 -10 12 4 15 3 10 -5 -5 -9 0 -9 19 -2 14 5 24 7 22 2 -3 -4 1
-13 9 -20 12 -11 14 -10 15 5 0 15 2 15 7 3 4 -8 18 -16 32 -18 14 -1 31 -3
38 -4 6 -1 12 -4 12 -8 0 -3 10 -7 23 -7 22 -1 62 -10 62 -13 0 -1 14 -3 32
-4 17 -1 41 -10 53 -21 21 -19 21 -19 15 1 -6 18 -6 18 8 1 11 -14 16 -15 20
-5 4 11 6 11 6 0 1 -7 6 -10 11 -7 6 4 18 1 27 -7 12 -9 15 -9 9 -1 -4 7 -2
13 3 13 6 0 11 -8 12 -17 0 -11 3 -13 6 -5 6 15 33 16 33 2 0 -7 6 -7 20 0 15
8 20 8 20 -3 0 -8 11 -14 28 -14 71 -1 93 -4 88 -11 -3 -5 1 -9 9 -9 8 0 15 5
15 11 0 7 3 7 8 1 11 -15 32 -17 32 -3 0 10 2 10 8 1 4 -7 26 -15 47 -19 22
-3 47 -9 55 -13 8 -4 27 -6 42 -5 15 2 30 -2 34 -7 4 -6 10 -6 19 1 10 8 15 8
20 -1 6 -8 10 -7 17 2 7 11 11 11 15 2 2 -7 11 -13 19 -13 9 0 13 4 9 9 -3 5
0 13 6 17 8 4 9 3 5 -4 -3 -6 2 -16 13 -22 14 -7 22 -7 27 2 4 7 3 8 -4 4 -7
-4 -12 -2 -12 3 0 14 17 14 25 1 3 -5 11 -10 16 -10 6 0 8 4 4 9 -3 5 -1 13 5
16 6 4 9 1 8 -6 -2 -6 3 -14 10 -16 6 -3 12 0 12 7 0 6 5 8 10 5 6 -4 8 -9 6
-13 -2 -4 13 -7 34 -7 26 0 36 4 33 13 -4 8 0 10 11 6 9 -3 14 -9 11 -13 -6
-11 98 -1 110 10 14 14 29 11 17 -4 -9 -10 -5 -13 19 -11 16 1 36 7 44 14 11
9 18 9 30 -4 21 -21 29 -20 21 0 -6 15 -4 15 11 3 15 -12 16 -12 10 6 -7 20
-7 20 8 1 13 -17 17 -18 28 -6 10 10 9 11 -2 5 -9 -5 -12 -4 -8 2 4 6 17 9 29
8 13 -1 33 -3 46 -4 13 0 20 -5 17 -11 -10 -16 1 -11 16 7 12 15 12 16 -1 8
-12 -6 -13 -6 -2 6 8 9 15 10 20 4 9 -12 44 -16 36 -4 -3 5 0 9 6 9 6 0 8 5 4
12 -4 7 -3 8 5 4 6 -4 9 -11 7 -15 -3 -4 8 -8 24 -9 20 -2 30 3 33 15 4 17 5
17 6 0 1 -14 5 -16 20 -8 10 6 22 7 27 3 5 -4 3 1 -4 10 -11 14 -10 16 7 11
12 -3 19 -9 16 -12 -2 -4 2 -8 9 -8 8 0 12 7 8 15 -3 10 -1 13 7 8 6 -4 20 -2
29 6 15 12 16 11 3 -5 -8 -9 -11 -20 -7 -24 3 -3 6 -1 6 6 0 8 6 11 16 7 8 -3
13 -2 10 2 -3 4 4 14 16 21 16 10 18 10 12 0 -5 -9 -2 -10 12 -5 24 10 34 10
58 0 13 -5 17 -4 13 3 -4 6 0 16 8 23 13 11 14 10 8 -6 -6 -15 -2 -15 27 6 18
13 30 19 26 12 -5 -8 0 -12 11 -12 11 0 24 -5 31 -12 7 -7 12 -8 12 -2 0 6
-10 16 -22 23 -13 6 -15 9 -5 7 9 -3 17 0 17 7 0 7 5 4 11 -6 13 -22 30 -22
23 1 -5 16 -5 16 8 0 13 -15 15 -15 26 3 7 11 9 25 5 32 -4 7 0 7 10 -2 13
-10 20 -11 31 -2 8 6 36 12 62 12 27 1 75 8 107 16 31 8 66 15 77 16 11 1 20
5 20 9 0 4 3 7 8 6 16 -4 52 14 46 24 -4 7 0 7 13 0 23 -13 49 0 38 19 -6 11
-5 11 5 2 11 -10 16 -9 27 5 8 9 12 12 9 5 -4 -7 1 -9 14 -6 17 5 18 8 8 21
-11 13 -10 14 8 4 12 -6 24 -9 27 -6 3 3 13 7 24 9 10 1 17 8 15 14 -3 16 4
14 24 -6 17 -17 18 -17 11 0 -8 21 1 25 63 30 31 3 45 9 44 19 -1 8 7 15 18
15 11 1 16 -3 12 -9 -5 -7 -2 -8 5 -4 7 5 10 15 6 24 -5 13 -2 13 14 -2 20
-18 20 -18 16 2 -3 16 0 19 12 15 12 -5 14 -3 8 7 -6 10 -4 11 6 4 26 -16 37
-12 32 10 -4 17 -3 18 6 6 10 -13 12 -13 21 0 6 10 10 11 10 3 0 -7 5 -13 11
-13 5 0 7 4 4 10 -3 6 5 10 19 10 14 0 28 4 31 10 4 6 -1 7 -12 4 -15 -5 -15
-4 -3 4 10 8 19 7 29 -1 12 -9 13 -9 8 0 -5 7 1 16 13 23 11 6 20 7 20 3 0 -4
5 -1 10 7 7 11 10 11 10 2 0 -7 5 -10 10 -7 6 4 8 11 5 16 -4 5 2 6 12 2 16
-6 17 -5 3 12 -14 17 -14 18 6 7 16 -9 21 -8 21 3 0 8 -4 12 -8 9 -16 -10 -18
14 -2 27 9 8 14 9 10 3 -4 -7 0 -14 8 -18 8 -3 17 0 21 6 4 7 3 8 -4 4 -8 -5
-10 -2 -6 8 7 20 24 11 24 -12 0 -10 3 -13 8 -7 4 6 17 10 29 9 12 -1 20 3 17
8 -3 4 -10 5 -16 2 -6 -4 -8 -2 -5 4 4 5 18 9 32 7 14 -1 25 2 25 7 0 5 5 6
10 3 6 -4 9 -1 8 7 -2 7 3 12 11 10 7 -1 19 2 25 8 7 5 17 6 21 2 5 -4 5 -1 1
6 -4 6 -2 12 4 12 6 0 8 4 5 10 -3 6 1 7 9 4 9 -4 16 -1 16 6 0 10 3 10 15 0
13 -11 14 -10 9 5 -5 12 -4 16 4 11 6 -3 13 -2 17 4 4 6 10 8 15 5 5 -3 17 6
28 20 11 13 22 21 26 18 3 -3 6 2 7 13 0 11 3 14 6 6 3 -9 10 -7 23 9 11 12
24 18 31 13 9 -5 10 -1 6 15 -4 18 -3 20 8 11 11 -9 12 -7 8 11 -4 15 -3 20 5
15 7 -4 12 -2 12 3 0 14 -6 14 -30 1 -14 -7 -20 -6 -24 6 -4 10 -14 14 -25 11
-20 -5 -22 7 -7 32 6 10 5 12 -2 7 -7 -4 -12 -2 -12 5 0 6 8 9 20 6 17 -4 18
-3 8 16 -10 20 -10 21 6 8 14 -12 16 -12 10 3 -4 11 -1 16 10 16 9 0 16 5 16
10 0 6 5 10 11 10 5 0 7 -6 4 -12 -4 -7 3 -2 15 12 12 14 19 18 15 10 -4 -8 0
-6 9 4 8 10 13 23 9 29 -3 6 -1 7 6 3 6 -4 9 -11 6 -16 -3 -4 3 -14 12 -21 15
-12 16 -12 8 1 -25 41 -18 46 68 45 46 -1 88 -5 95 -9 7 -4 12 -3 12 3 0 5 11
8 25 6 16 -1 25 3 25 12 0 8 5 11 10 8 6 -3 10 1 10 9 0 9 4 16 9 16 5 0 23
13 40 29 17 16 31 27 31 24 0 -2 15 12 34 31 18 20 36 33 40 29 3 -3 6 -2 6 3
0 6 7 19 16 30 8 10 13 12 9 4 -7 -16 7 0 35 39 10 15 16 17 22 8 6 -9 8 -9 8
1 0 8 5 10 12 6 8 -5 9 -2 5 9 -6 16 3 22 26 18 4 -1 7 7 5 16 -2 10 3 18 12
18 8 1 14 6 12 13 -1 7 5 12 14 12 10 0 14 6 11 14 -4 10 -1 13 9 9 9 -3 14 1
14 12 0 9 5 13 10 10 6 -3 10 1 10 10 0 9 5 13 10 10 6 -3 10 -1 10 5 0 6 5 8
10 5 6 -4 10 -3 9 2 -4 16 13 43 24 36 7 -4 8 0 3 12 -6 16 -4 16 11 4 11 -9
14 -10 9 -1 -4 7 -2 12 4 12 7 0 9 7 6 16 -3 9 -2 12 5 9 6 -4 13 2 16 14 3
11 9 19 13 16 5 -3 11 4 15 15 4 11 11 18 16 15 5 -4 9 5 9 19 0 20 4 24 17
19 11 -4 14 -3 9 5 -4 7 -1 15 8 18 9 3 13 10 10 15 -3 5 2 9 11 9 9 0 14 4
11 9 -3 5 1 14 9 21 8 7 13 16 10 20 -3 4 2 11 11 14 9 4 14 9 11 12 -3 4 4
15 16 26 12 11 15 17 7 13 -10 -4 -9 -2 2 8 10 8 15 17 11 20 -3 4 -1 7 5 7 7
0 11 3 11 8 -3 20 2 32 13 26 6 -4 8 -3 4 4 -3 6 -2 13 4 17 6 4 8 11 5 16 -4
5 -1 9 5 9 7 0 10 7 6 15 -3 8 -1 15 4 15 6 0 10 7 10 15 0 8 4 15 8 15 5 0
15 18 22 40 7 22 17 40 21 40 4 0 6 9 4 19 -2 11 3 22 11 25 8 3 14 11 14 18
0 9 -3 8 -10 -2 -7 -10 -10 -11 -10 -2 0 7 6 15 14 18 8 3 12 13 9 25 -3 10 0
19 6 19 6 0 10 3 9 8 -1 4 4 18 11 31 11 19 11 22 -1 15 -8 -4 -7 0 3 12 9 10
14 25 12 32 -3 6 0 12 6 12 6 0 11 9 11 21 0 11 4 18 9 15 5 -4 7 3 4 14 -3
11 0 20 6 20 9 0 9 5 0 21 -6 12 -7 19 -1 15 11 -7 22 16 22 45 0 11 5 17 10
14 6 -3 10 -2 10 4 0 5 -5 13 -11 17 -8 5 -6 10 5 16 9 5 14 13 11 19 -4 5 0
9 7 9 9 0 9 3 -2 10 -12 7 -12 10 -1 10 8 0 11 6 7 16 -3 8 -2 12 4 9 10 -6
13 3 13 37 0 10 3 15 8 13 10 -7 22 32 14 45 -4 6 -1 9 7 8 7 -2 12 5 11 15 0
12 4 16 13 13 12 -5 12 -2 3 17 -6 12 -8 19 -4 15 5 -5 20 9 34 30 14 20 38
48 55 62 16 14 43 39 60 55 16 17 24 22 16 12 -11 -15 -11 -17 3 -11 9 3 19
14 22 25 4 11 11 17 16 14 5 -4 9 -1 9 5 0 7 7 10 15 6 10 -3 15 1 15 12 0 13
2 14 9 3 7 -11 11 -10 20 5 6 11 11 15 11 10 0 -5 8 -2 17 5 9 8 14 9 10 3 -3
-6 0 -11 8 -11 8 0 12 4 9 9 -3 4 0 8 6 8 6 0 8 4 5 10 -3 6 1 7 10 4 8 -4 22
-1 30 6 8 7 34 14 57 16 23 2 45 8 48 12 8 10 44 9 52 -3 4 -5 8 -1 8 10 0 12
3 16 8 9 4 -6 17 -13 30 -17 18 -4 21 -3 12 8 -8 10 -8 15 1 21 9 5 9 10 -2
18 -8 6 -15 19 -16 29 -2 35 -3 38 -15 31 -8 -5 -7 0 2 11 9 11 10 16 3 11 -8
-4 -13 -1 -13 8 0 9 -6 16 -12 16 -9 0 -8 4 2 10 11 7 11 10 2 10 -7 0 -10 5
-7 10 3 6 -2 10 -12 10 -14 0 -15 2 -5 9 11 7 11 11 -1 22 -7 8 -19 25 -26 37
-7 12 -16 20 -21 17 -6 -4 -7 1 -3 11 5 13 3 15 -7 9 -10 -6 -12 -4 -7 9 5 13
3 17 -7 13 -10 -4 -12 1 -9 16 4 18 3 20 -7 7 -10 -12 -11 -11 -7 8 5 19 2 22
-11 17 -14 -5 -15 -4 -4 6 15 16 16 33 0 23 -6 -4 -8 -3 -4 4 3 6 2 14 -4 17
-8 5 -7 11 1 21 9 11 8 14 -7 15 -11 0 -14 3 -7 5 7 3 9 12 6 20 -3 7 -10 11
-17 7 -6 -4 -5 1 2 10 8 9 11 21 7 27 -3 5 -1 10 6 10 7 0 9 3 6 7 -4 3 1 12
11 20 16 12 15 13 -3 6 -18 -6 -18 -5 -6 10 7 9 17 14 22 12 4 -3 6 4 4 15 -3
16 -1 18 13 11 9 -4 23 -6 31 -3 9 3 11 0 6 -8 -5 -9 -4 -11 4 -6 6 4 9 12 6
17 -4 5 -3 9 2 10 4 0 16 2 26 4 9 2 15 -1 11 -6 -3 -5 0 -9 6 -9 6 0 8 -6 4
-12 -6 -10 -4 -10 7 0 16 14 33 16 24 2 -3 -5 1 -10 9 -10 9 0 16 -4 16 -10 0
-5 7 -10 15 -10 8 0 15 -5 15 -12 0 -6 3 -8 7 -5 3 4 16 1 27 -6 12 -8 37 -15
56 -16 123 -5 160 -5 160 2 0 5 5 5 10 2 6 -3 10 0 10 7 0 10 2 10 9 -1 5 -8
11 -9 15 -3 3 6 17 9 31 8 15 -2 22 1 18 7 -4 6 0 8 10 4 9 -3 20 -1 24 6 5 7
14 12 21 13 39 3 43 5 36 17 -5 7 0 6 11 -3 11 -9 16 -10 11 -2 -5 8 2 15 18
22 14 5 26 14 26 20 0 5 8 10 18 10 20 0 54 35 44 46 -4 4 1 4 11 1 11 -4 16
-3 12 3 -3 6 -1 10 4 10 6 0 11 7 11 15 0 8 4 15 10 15 13 0 59 48 52 54 -3 3
1 6 8 6 7 0 11 3 7 6 -3 4 4 15 16 26 12 11 15 16 7 12 -13 -7 -13 -6 0 10 13
16 12 20 -7 36 -12 10 -19 20 -16 24 4 3 -4 6 -16 6 -12 0 -19 4 -16 10 3 6
-1 7 -9 4 -10 -4 -16 -1 -16 7 0 12 -2 12 -9 0 -6 -9 -11 -10 -15 -2 -4 6 -12
9 -17 6 -5 -4 -9 1 -9 9 0 9 -7 13 -20 11 -11 -2 -20 1 -20 6 0 6 -4 7 -10 4
-5 -3 -10 -2 -10 4 0 6 -7 8 -15 4 -9 -3 -23 1 -33 9 -9 9 -29 15 -44 14 -14
-1 -24 2 -22 6 2 3 -8 7 -23 7 -53 2 -63 4 -63 16 0 8 -10 10 -26 7 -21 -4
-25 -2 -19 8 6 10 4 12 -8 7 -9 -3 -26 2 -39 13 -13 11 -19 19 -13 20 5 0 -1
7 -13 16 -21 14 -22 41 -1 28 5 -3 6 -10 3 -16 -4 -7 -2 -8 5 -4 7 5 9 12 3
19 -5 7 -8 28 -8 49 1 20 -2 34 -6 31 -5 -2 -8 0 -8 5 0 11 30 26 43 23 5 -1
6 3 2 8 -3 6 -13 7 -23 4 -15 -6 -15 -5 -3 10 9 12 10 17 2 17 -7 0 -9 5 -6
10 4 6 11 8 16 5 5 -3 6 1 3 9 -3 9 -11 13 -18 9 -6 -3 -6 -1 2 8 6 7 12 21
12 32 0 11 4 15 12 11 7 -4 8 -3 4 5 -6 9 -11 9 -24 -1 -14 -11 -15 -10 -9 5
4 10 7 21 7 23 0 3 5 2 12 -2 7 -5 8 -3 3 6 -4 7 -2 16 6 22 10 7 8 8 -7 4
-17 -5 -20 -2 -18 16 1 13 3 29 3 37 1 11 4 11 19 0 14 -11 15 -11 5 1 -7 8
-13 22 -13 33 0 10 -4 16 -9 13 -5 -4 -8 1 -7 10 3 19 26 35 41 26 5 -3 4 2
-4 11 -10 13 -11 20 -2 30 6 8 8 17 4 21 -4 4 3 9 15 13 12 3 19 10 15 16 -4
6 0 8 10 4 9 -3 16 -3 16 1 -1 4 -1 14 0 22 1 12 5 11 18 -5 10 -13 14 -15 10
-4 -7 22 6 40 32 42 12 1 20 6 17 13 -6 14 18 37 27 27 4 -3 7 -1 7 5 0 7 4
12 10 12 5 0 7 -8 5 -17 -3 -10 2 -3 10 15 8 17 18 32 21 32 3 0 2 -6 -2 -12
-3 -7 9 4 28 24 19 21 38 35 41 31 4 -3 7 0 7 7 0 8 10 23 23 35 13 11 16 16
7 10 -13 -9 -13 -8 -1 7 7 10 20 18 28 18 8 0 12 4 8 9 -3 5 0 15 7 23 7 7 15
22 16 33 2 11 8 22 13 23 5 2 7 8 3 13 -3 5 1 9 8 9 9 0 9 3 -2 10 -8 5 -10
10 -4 10 6 0 11 7 11 15 0 8 -6 15 -12 15 -7 0 -17 10 -23 23 -6 12 -11 16
-11 10 -1 -18 -21 -16 -21 1 0 8 -7 17 -16 20 -15 6 -15 4 -3 -11 12 -15 12
-16 -2 -11 -9 4 -22 1 -29 -5 -10 -9 -11 -7 -5 13 l8 25 -22 -25 c-13 -14 -20
-19 -16 -12 4 8 -3 12 -22 13 -25 0 -26 1 -8 9 l20 9 -20 0 c-11 1 -27 6 -35
12 -13 9 -12 10 3 5 10 -3 16 -2 12 3 -3 5 1 12 7 14 7 3 -1 4 -19 2 -24 -3
-30 0 -26 10 3 8 10 13 16 12 7 -1 12 11 12 29 -1 22 3 30 12 27 8 -3 11 0 8
9 -5 13 4 16 53 20 6 1 12 5 12 10 0 5 5 6 10 3 6 -3 10 -1 10 5 0 6 5 8 10 5
6 -3 10 -2 10 4 0 5 8 8 18 7 9 -2 20 2 24 8 4 6 12 12 18 12 5 1 15 2 21 3 5
0 8 4 6 9 -3 4 7 16 22 26 l26 20 -20 -25 c-10 -13 1 -4 26 21 25 25 44 48 42
51 -1 4 4 10 12 13 8 3 14 11 13 18 -2 7 2 12 9 11 7 -2 10 4 7 12 -4 8 -1 15
5 15 6 0 8 7 4 17 -4 11 -3 14 5 9 8 -5 10 -2 6 8 -3 9 -1 16 6 16 6 0 9 4 6
8 -3 5 1 20 8 33 7 14 10 34 6 44 -4 11 -5 24 -3 28 9 15 9 97 0 97 -4 0 -6 4
-2 9 10 17 12 71 2 71 -6 0 -5 5 2 13 8 10 7 18 -3 32 -13 18 -51 32 -40 14 5
-8 -9 -13 -28 -10 -5 0 -8 -3 -8 -7 0 -4 -9 -8 -20 -9 -12 -1 -18 3 -14 8 3 6
-3 5 -14 -2 -12 -7 -18 -17 -16 -21 5 -8 -10 -12 -35 -9 -8 2 -10 -2 -5 -10 4
-7 3 -10 -3 -6 -6 4 -19 0 -29 -8 -10 -8 -23 -14 -29 -15 -5 0 -3 5 5 10 9 6
10 10 3 10 -6 0 -15 -5 -18 -10 -4 -6 -11 -7 -17 -4 -6 4 -8 2 -5 -3 8 -13
-17 -25 -36 -17 -7 2 -21 -3 -32 -11 -19 -15 -19 -16 5 -5 24 11 24 10 6 -4
-25 -20 -36 -20 -36 -2 0 14 -16 16 -36 3 -16 -10 -26 4 -13 20 14 16 -3 17
-19 1 -9 -9 -12 -9 -12 0 0 7 -7 12 -16 12 -9 0 -12 5 -8 13 5 7 0 6 -11 -3
-17 -14 -17 -13 -10 9 5 18 4 22 -6 15 -12 -6 -12 -5 0 9 10 13 10 17 1 17
-10 0 -9 4 1 18 7 9 10 14 5 10 -10 -8 -28 8 -45 40 -7 12 -16 20 -22 17 -5
-4 -9 3 -9 14 0 12 -5 21 -12 21 -6 0 -8 3 -5 7 4 3 2 12 -4 20 -9 10 -8 13 0
13 7 0 9 5 6 10 -5 8 -11 7 -20 0 -12 -10 -13 -6 -5 18 7 25 5 30 -6 25 -9 -3
-14 2 -14 15 0 11 -5 22 -12 24 -16 6 -18 48 -2 48 7 0 15 4 18 9 3 5 -2 8
-11 7 -10 0 -17 7 -18 22 -1 13 3 21 9 19 18 -7 13 70 -7 93 -16 19 -14 25 7
21 5 -1 4 4 -3 13 -9 11 -9 16 0 22 8 5 9 3 4 -6 -6 -9 -4 -11 4 -6 7 5 10 14
7 22 -3 8 -1 13 3 11 5 -1 10 3 12 8 1 6 9 16 18 23 13 11 13 12 1 7 -12 -5
-12 -4 1 7 25 21 51 85 53 128 0 22 5 40 10 40 4 0 2 8 -5 17 -12 14 -12 16 0
8 10 -6 12 -4 6 5 -4 7 -10 37 -12 67 -1 31 -9 61 -18 69 -18 18 -20 28 -3 18
6 -4 4 3 -5 17 -9 13 -17 32 -17 42 0 10 -4 16 -8 13 -5 -3 -15 6 -22 19 -7
14 -18 25 -24 25 -6 0 -4 5 4 10 13 8 12 10 -4 10 -11 0 -17 3 -13 6 3 4 1 12
-6 20 -7 7 -18 20 -25 29 -7 8 -17 13 -22 10 -6 -3 -7 1 -4 10 5 11 2 14 -12
8 -12 -4 -15 -3 -10 5 4 7 1 12 -8 12 -8 0 -24 13 -36 30 -13 18 -26 27 -35
23 -8 -3 -15 0 -15 7 0 6 -4 9 -8 6 -5 -3 -14 4 -22 14 -8 10 -17 17 -22 14
-4 -3 -8 2 -8 12 0 13 -3 14 -14 5 -10 -8 -16 -9 -21 -1 -3 6 -11 8 -16 4 -5
-3 -9 -2 -8 3 4 20 -2 24 -18 12 -9 -8 -14 -9 -10 -3 9 15 -11 30 -42 32 -13
0 -27 6 -31 12 -4 6 -23 12 -42 13 -20 1 -34 5 -31 10 3 6 -5 8 -32 7 -3 0
-20 7 -38 17 -17 9 -40 17 -50 18 -11 1 -22 6 -25 11 -4 5 -16 10 -27 12 -11
2 -25 10 -31 18 -6 7 -14 11 -17 7 -4 -3 -7 -1 -7 5 0 7 -5 12 -11 12 -15 0
-39 26 -31 34 3 4 -2 4 -12 0 -14 -5 -17 -4 -12 4 4 7 1 15 -8 18 -9 3 -13 11
-9 18 4 6 -1 5 -10 -2 -14 -12 -16 -11 -12 8 3 17 1 20 -13 15 -9 -3 -13 -3
-9 1 4 4 -1 13 -11 21 -9 8 -11 12 -4 8 6 -3 12 -1 12 4 0 6 -6 11 -14 11 -8
0 -17 9 -21 19 -9 28 -31 45 -41 30 -4 -7 -3 -9 3 -6 6 4 13 -2 16 -14 5 -17
3 -18 -11 -7 -13 11 -15 10 -10 -10 4 -12 2 -20 -3 -16 -5 3 -9 0 -9 -5 0 -6
6 -11 13 -11 7 0 8 -3 2 -8 -16 -11 -19 -46 -3 -36 10 6 10 4 -1 -9 -7 -9 -10
-17 -6 -17 4 0 1 -8 -6 -17 -8 -10 -9 -14 -2 -10 6 4 14 3 18 -3 3 -5 0 -10
-7 -10 -9 0 -9 -3 2 -10 8 -5 10 -10 3 -10 -6 0 -10 -11 -8 -25 2 -22 0 -23
-13 -13 -14 12 -14 10 -2 -12 12 -23 12 -24 -4 -11 -14 12 -17 12 -14 1 2 -8
-2 -14 -9 -15 -17 0 -29 -15 -12 -15 10 -1 9 -4 -4 -11 -13 -8 -22 -7 -32 1
-9 8 -15 8 -20 0 -4 -6 -1 -9 5 -8 7 2 14 -5 15 -15 3 -15 1 -16 -11 -6 -11 9
-21 9 -39 1 -14 -7 -27 -7 -30 -2 -3 5 -13 6 -22 3 -9 -4 -14 -2 -10 3 3 6 -6
10 -21 10 -48 -1 -30 26 31 47 31 12 57 26 57 31 0 30 -66 121 -115 159 l-54
42 82 17 c126 26 264 58 347 80 41 11 85 22 97 24 12 2 78 20 145 40 119 35
322 92 421 119 62 17 76 5 120 -100 36 -89 37 -89 134 -72 l42 7 -15 53 c-68
235 -231 684 -261 719 -13 15 -20 13 -91 -21 -79 -39 -210 -93 -257 -107 -5
-2 -50 -17 -100 -34 -95 -33 -423 -117 -487 -125 -20 -3 -57 -9 -82 -15 -143
-32 -393 -44 -516 -25 -128 19 -192 101 -150 192 22 47 45 72 113 120 72 52
87 60 186 98 132 51 306 91 476 110 62 7 316 7 370 0 139 -17 130 -18 114 2
-7 10 -27 34 -44 54 -16 19 -52 61 -80 94 -27 32 -54 63 -60 69 -5 6 -46 52
-90 101 -44 50 -99 110 -121 135 -23 25 -56 61 -74 80 -18 19 -68 72 -111 117
l-79 82 -48 -15 c-26 -8 -72 -21 -102 -30 -67 -20 -82 -31 -56 -46 23 -13 201
-166 286 -246 60 -57 62 -61 35 -56 -111 16 -166 20 -257 18 -134 -2 -217 -14
-363 -48 -109 -26 -300 -118 -398 -193 -98 -74 -184 -169 -220 -242 -28 -57
-32 -76 -32 -141 1 -87 14 -117 78 -182 35 -36 146 -106 182 -115 6 -1 43 -14
84 -27 83 -29 226 -61 316 -71 100 -12 108 -13 160 -15 l50 -2 -52 -24 c-28
-14 -125 -51 -214 -83 -90 -31 -164 -62 -166 -68 -2 -6 20 -19 49 -29 79 -26
173 -72 263 -128 44 -28 82 -53 85 -56 3 -3 22 -18 43 -33 94 -71 226 -222
209 -239 -6 -6 -18 -6 -31 1 -12 7 -21 8 -21 4 -1 -4 -8 3 -16 17 -15 24 -15
24 -10 2 4 -19 2 -21 -9 -12 -8 7 -20 8 -27 4 -10 -6 -10 -5 0 8 11 14 10 16
-5 13 -10 -1 -17 -8 -15 -15 1 -6 -2 -9 -8 -5 -6 3 -7 12 -3 18 4 7 -2 5 -12
-3 -11 -9 -16 -10 -11 -2 4 7 1 12 -9 12 -9 0 -14 -4 -11 -9 3 -4 -9 -7 -27
-6 -48 4 -49 4 -42 18 4 6 1 5 -7 -3 -15 -17 -38 -24 -38 -11 0 5 -7 12 -16
15 -13 5 -14 4 -6 -7 9 -10 8 -14 -3 -14 -8 0 -15 4 -15 9 0 4 -5 8 -11 8 -5
0 -8 -4 -5 -8 2 -4 -6 -8 -20 -8 -14 0 -24 6 -24 15 0 8 -3 11 -7 8 -3 -4 -13
-1 -22 5 -13 10 -14 10 -3 -2 17 -20 15 -26 -10 -27 -18 -2 -20 0 -8 7 13 8
12 10 -2 10 -10 0 -18 -5 -18 -11 0 -5 -5 -7 -10 -4 -6 4 -7 12 -3 18 3 7 -4
3 -18 -8 -14 -12 -19 -14 -11 -4 10 14 10 18 -3 23 -10 3 -13 11 -9 18 6 10 5
11 -8 1 -19 -16 -32 -5 -16 14 8 11 7 12 -5 8 -8 -4 -18 -1 -23 6 -5 8 -3 10
7 4 12 -8 12 -6 0 8 -8 10 -15 27 -17 40 -10 80 -14 101 -23 111 -7 9 -7 16 1
24 9 9 9 12 -1 12 -7 0 -9 5 -6 10 3 6 2 10 -3 10 -6 0 -8 10 -5 23 4 18 3 19
-7 7 -10 -12 -11 -11 -7 8 3 12 1 22 -5 22 -5 0 -6 5 -3 10 4 6 -6 27 -21 47
-15 20 -21 33 -13 28 11 -7 12 -6 2 7 -7 8 -9 19 -5 23 4 5 3 6 -3 3 -5 -3
-19 6 -30 21 -19 25 -19 26 0 11 14 -11 13 -6 -5 17 -14 18 -30 32 -36 32 -13
1 -29 30 -25 46 2 5 0 7 -4 3 -9 -8 -45 23 -45 39 0 12 -14 18 -35 13 -5 -1
-7 2 -3 6 11 11 -12 34 -33 34 -13 0 -19 7 -19 23 0 16 -3 18 -9 9 -7 -11 -9
-10 -15 3 -3 9 -10 14 -15 11 -5 -3 -12 1 -15 10 -3 8 -10 12 -16 9 -5 -3 -10
1 -10 10 0 9 -4 13 -10 10 -5 -3 -10 -1 -10 4 0 6 -5 11 -11 11 -5 0 -7 -6 -4
-12 3 -7 -2 -3 -11 10 -9 12 -25 22 -35 22 -10 0 -20 4 -24 10 -3 5 -12 7 -20
3 -8 -3 -15 0 -15 7 0 6 -4 8 -10 5 -5 -3 -10 -2 -10 3 0 5 -6 9 -12 10 -23 2
-43 7 -56 16 -7 4 -16 5 -19 2 -3 -3 -12 2 -20 12 -8 9 -12 11 -8 5 7 -14 -7
-18 -19 -6 -4 4 -19 9 -34 11 -15 2 -29 7 -30 13 -2 5 -8 7 -13 3 -5 -3 -9 3
-10 13 0 16 -1 16 -9 -2 -7 -16 -9 -16 -9 -4 -1 23 -29 32 -34 11 -3 -11 -5
-8 -6 8 -1 19 -3 22 -10 11 -5 -8 -17 -16 -25 -17 -9 -1 -14 1 -12 5 2 3 -9 7
-26 8 -22 0 -27 -2 -17 -8 9 -7 5 -8 -12 -3 -16 3 -30 1 -34 -6 -5 -8 -11 -7
-22 2 -9 7 -18 12 -20 11 -1 -2 -9 -3 -17 -3 -16 0 -38 54 -28 66 4 4 1 4 -5
0 -9 -5 -13 -1 -13 11 0 15 -2 16 -10 3 -9 -13 -10 -13 -11 0 -1 8 -1 22 0 30
1 11 0 12 -7 2 -13 -19 -52 -24 -45 -6 3 9 -1 14 -13 14 -16 0 -17 2 -4 10 8
5 10 10 5 10 -6 0 -11 9 -12 20 -1 14 4 20 18 20 11 0 18 4 14 9 -3 6 3 8 14
6 19 -4 23 17 6 32 -4 4 -5 2 0 -6 5 -9 4 -12 -3 -7 -7 4 -12 14 -12 23 0 9
-6 13 -14 10 -10 -4 -13 -1 -10 8 4 10 -1 12 -18 8 -21 -6 -22 -5 -8 12 8 10
10 16 4 12 -7 -4 -23 5 -37 19 -14 14 -31 23 -36 19 -7 -4 -8 0 -4 11 4 11 2
15 -4 11 -6 -4 -23 5 -39 19 -16 15 -23 23 -15 19 9 -6 12 -4 7 3 -4 7 -16 12
-27 12 -10 0 -19 5 -19 11 0 5 -4 8 -8 5 -5 -3 -14 4 -22 14 -8 10 -17 17 -22
14 -4 -3 -8 0 -8 6 0 6 -4 8 -10 5 -5 -3 -10 1 -10 10 0 10 -5 13 -12 9 -8 -5
-9 -2 -5 10 5 14 3 15 -13 6 -16 -9 -18 -8 -13 6 4 12 3 15 -5 10 -7 -4 -12
-3 -12 2 0 6 -7 12 -14 15 -11 4 -13 1 -10 -11 4 -13 3 -14 -3 -4 -6 7 -19 14
-30 15 -13 1 -19 6 -16 15 3 8 -3 15 -16 19 -11 3 -18 10 -15 15 3 5 0 9 -7 7
-29 -3 -40 1 -33 14 5 7 2 7 -10 -2 -15 -12 -17 -12 -14 0 2 8 -3 13 -9 11 -7
-1 -13 3 -13 10 0 6 -3 9 -6 6 -3 -4 -14 2 -25 13 -11 11 -25 17 -31 13 -7 -5
-9 -2 -5 9 4 12 2 14 -10 10 -12 -5 -14 -3 -8 7 5 9 4 11 -4 6 -6 -4 -18 -2
-26 4 -8 6 -18 9 -24 6 -5 -4 -13 3 -16 14 -6 18 -9 19 -23 8 -12 -10 -14 -10
-8 0 4 7 2 12 -7 12 -19 0 -77 30 -77 40 0 4 -9 6 -20 3 -12 -3 -20 0 -20 7 0
7 -8 10 -20 7 -13 -3 -20 0 -20 10 0 8 -4 11 -10 8 -5 -3 -10 -2 -10 4 0 5
-12 8 -26 6 -15 -1 -28 3 -31 11 -4 11 -10 11 -26 2 -21 -11 -21 -10 -7 7 14
17 13 18 -7 13 -14 -4 -24 -1 -27 9 -3 8 -10 11 -16 8 -6 -4 -24 1 -42 9 -17
9 -37 16 -45 16 -8 0 -11 5 -7 13 5 9 4 9 -6 0 -10 -9 -22 -8 -53 8 -24 13
-36 16 -31 7 6 -10 5 -10 -7 -2 -13 11 -54 23 -72 23 -5 0 -14 7 -21 17 -10
13 -15 14 -20 5 -6 -9 -13 -8 -29 6 -11 10 -17 12 -13 6 4 -7 2 -13 -3 -13 -6
0 -11 4 -11 9 0 6 -9 8 -20 6 -11 -2 -20 0 -20 5 0 4 -16 9 -35 10 -65 3 -75
4 -75 13 0 5 -7 7 -15 3 -8 -3 -15 0 -15 6 0 7 -5 6 -15 -2 -12 -10 -16 -9
-21 4 -4 10 -13 14 -24 11 -10 -3 -21 -1 -25 5 -5 8 -11 8 -21 -1 -11 -9 -14
-8 -15 7 0 12 -3 14 -6 6 -4 -10 -8 -10 -21 0 -13 11 -14 11 -7 -2 7 -12 6
-13 -7 -2 -8 6 -34 13 -56 14 -51 2 -46 12 12 27 68 17 146 14 181 -7 l30 -19
1 119 1 118 -26 7 c-13 3 -42 2 -63 -4 -34 -9 -38 -8 -34 6 10 33 34 148 40
192 4 25 9 57 11 70 18 104 28 264 29 451 1 102 3 188 6 191 14 13 72 37 88
37 23 0 32 25 32 92 l0 47 -132 -5 c-73 -3 -151 -6 -173 -9 -22 -2 -84 -7
-138 -10 -54 -4 -106 -8 -115 -10 -9 -2 -23 -4 -30 -4 -8 -1 -4 -17 13 -52 75
-148 120 -316 131 -498 6 -98 5 -103 -12 -97 -61 18 -148 31 -279 42 -38 3
-71 7 -73 8 -6 7 -6 305 1 365 8 67 36 188 62 260 8 24 15 45 15 46 0 2 -24 6
-52 10 -29 4 -60 9 -68 10 -8 2 -44 6 -80 10 -36 3 -76 8 -90 10 -38 6 -135
14 -230 20 -47 4 -104 8 -127 10 -23 2 -44 1 -46 -3z m984 -954 c1 -13 1 -36
1 -53 1 -47 -20 -294 -27 -333 -2 -9 -4 -30 -4 -45 -1 -16 -5 -26 -10 -23 -5
4 -12 0 -14 -6 -4 -10 -8 -9 -16 2 -10 13 -11 13 -12 0 0 -9 -2 -10 -5 -3 -4
8 -14 9 -35 3 -18 -5 -27 -5 -24 1 8 11 3 11 -29 -1 -14 -5 -25 -6 -25 -2 3
19 -2 25 -11 12 -9 -13 -12 -12 -22 5 -7 11 -13 25 -14 30 -1 6 -14 54 -28
107 -34 126 -68 298 -63 313 4 8 54 12 171 14 l166 2 1 -23z m-347 -454 c3 -8
2 -12 -4 -9 -6 3 -10 10 -10 16 0 14 7 11 14 -7z m-2585 -1057 c-2 -1 -13 -9
-24 -17 -19 -14 -19 -14 -6 3 7 9 18 17 24 17 6 0 8 -1 6 -3z m-639 -681 c0
-2 -7 -7 -16 -10 -8 -3 -12 -2 -9 4 6 10 25 14 25 6z m8519 -1209 c8 -10 7
-14 -2 -14 -8 0 -14 6 -14 14 0 7 1 13 2 13 2 0 8 -6 14 -13z m7 -42 c-1 -8
-5 -17 -8 -21 -5 -4 -4 16 1 34 3 9 9 -1 7 -13z m11 -2110 c0 -8 -4 -12 -9 -9
-5 3 -6 10 -3 15 9 13 12 11 12 -6z m-337 -531 c0 -8 -19 -13 -24 -6 -3 5 1 9
9 9 8 0 15 -2 15 -3z m-7545 -1962 c-3 -3 -11 0 -18 7 -9 10 -8 11 6 5 10 -3
15 -9 12 -12z m5575 -926 c0 -2 -6 -9 -14 -15 -11 -9 -16 -9 -22 0 -4 7 -3 9
4 5 6 -3 13 -2 17 4 6 10 15 14 15 6z m-707 -338 c3 -8 -5 -14 -20 -14 -22 -2
-23 -1 -6 12 22 17 20 16 26 2z m-163 -52 c0 -3 -4 -8 -10 -11 -5 -3 -10 -1
-10 4 0 6 5 11 10 11 6 0 10 -2 10 -4z m-525 -155 c3 -5 2 -12 -3 -15 -5 -3
-9 1 -9 9 0 17 3 19 12 6z m-935 -131 c0 -5 -2 -10 -4 -10 -3 0 -8 5 -11 10
-3 6 -1 10 4 10 6 0 11 -4 11 -10z"/>
<path d="M6600 14076 c-69 -24 -197 -72 -285 -106 -88 -34 -209 -80 -270 -102
-60 -21 -148 -52 -195 -69 -47 -17 -148 -51 -225 -76 -77 -25 -142 -47 -145
-50 -7 -6 92 -94 118 -104 16 -6 42 -4 82 6 69 18 98 18 126 2 12 -7 102 -89
200 -184 193 -184 204 -195 314 -293 41 -36 85 -75 98 -88 14 -12 68 -57 120
-100 52 -42 106 -87 121 -100 14 -13 54 -44 89 -69 34 -26 62 -50 62 -53 0 -3
-12 -7 -26 -8 -34 -3 -91 -30 -97 -46 -3 -7 32 -50 78 -96 75 -75 84 -80 90
-61 10 34 65 64 265 147 228 94 251 106 302 152 101 91 106 234 13 425 -58
121 -117 174 -198 181 -73 7 -188 -68 -226 -147 -38 -79 -22 -150 51 -219 81
-76 179 -102 258 -67 76 34 90 23 37 -29 -45 -44 -134 -74 -211 -71 -127 4
-233 70 -440 271 l-90 87 50 22 c27 11 54 22 59 23 6 1 47 15 93 29 46 15 90
27 98 27 24 0 16 12 -57 90 -38 41 -107 125 -153 185 -46 61 -93 118 -104 128
-19 18 -22 18 -47 1 -27 -18 -85 -95 -85 -113 0 -6 17 -20 38 -31 43 -23 90
-64 115 -103 18 -27 17 -28 -10 -51 -33 -28 -130 -83 -135 -76 -2 3 -42 50
-89 105 -107 125 -159 196 -205 279 l-36 66 69 31 c114 51 184 71 249 72 76 0
110 -19 192 -109 33 -35 64 -64 70 -64 6 0 31 10 56 22 l44 21 -30 81 c-32 85
-71 254 -62 268 8 13 -5 10 -136 -36z"/>
<path d="M5111 13334 c-47 -13 -127 -49 -141 -64 -3 -3 -18 -16 -34 -28 -16
-12 -52 -43 -80 -69 -189 -173 -237 -214 -309 -267 -88 -62 -143 -94 -247
-138 -67 -29 -260 -88 -289 -88 -9 0 -22 -4 -30 -9 -9 -6 17 -32 99 -95 93
-72 116 -85 139 -80 51 11 87 28 127 60 l42 34 23 -23 c22 -21 143 -125 200
-172 43 -36 162 -121 254 -183 86 -57 323 -202 332 -202 2 0 21 -11 43 -25 22
-14 64 -38 92 -54 29 -15 69 -37 88 -48 243 -135 237 -128 218 -199 -14 -52
-21 -44 86 -101 33 -18 63 -30 67 -25 4 4 43 52 87 107 45 55 112 134 151 175
l70 75 -82 38 c-236 111 -557 275 -672 344 -128 76 -129 78 -95 83 53 8 178
-8 238 -30 55 -21 158 -73 223 -113 85 -52 287 -164 324 -180 134 -58 246 -56
333 6 43 31 123 139 137 186 37 121 -63 347 -219 494 -124 118 -263 137 -313
44 -12 -23 -17 -56 -18 -117 0 -73 4 -93 28 -142 48 -97 133 -158 214 -154 48
3 74 22 105 78 26 45 41 48 57 10 14 -34 9 -94 -14 -148 -21 -52 -42 -73 -79
-79 -56 -11 -115 24 -279 167 -157 136 -257 154 -472 83 -11 -3 0 11 25 32
136 115 197 211 204 321 8 127 -31 220 -139 328 -151 151 -331 213 -494 168z
m216 -369 c48 -9 91 -30 126 -63 78 -73 -26 -226 -204 -298 -172 -70 -338 -88
-429 -47 -61 27 -81 52 -82 101 -1 106 107 225 256 279 90 33 241 46 333 28z"/>
<path d="M11480 12061 c0 -6 4 -13 10 -16 6 -3 7 1 4 9 -7 18 -14 21 -14 7z"/>
<path d="M11515 12038 c-5 -7 -5 -10 0 -6 4 4 14 3 20 -2 9 -7 17 -5 26 7 12
16 12 17 -2 6 -11 -9 -19 -9 -26 -2 -8 8 -13 7 -18 -3z"/>
<path d="M13316 11043 c-6 -14 -5 -15 5 -6 7 7 10 15 7 18 -3 3 -9 -2 -12 -12z"/>
<path d="M14395 9980 c-3 -5 -1 -10 4 -10 6 0 11 5 11 10 0 6 -2 10 -4 10 -3
0 -8 -4 -11 -10z"/>
<path d="M14596 8572 c-3 -5 1 -9 9 -9 8 0 12 4 9 9 -3 4 -7 8 -9 8 -2 0 -6
-4 -9 -8z"/>
<path d="M14426 8278 c3 -5 10 -6 15 -3 13 9 11 12 -6 12 -8 0 -12 -4 -9 -9z"/>
<path d="M14000 7266 c0 -2 7 -7 16 -10 8 -3 12 -2 9 4 -6 10 -25 14 -25 6z"/>
<path d="M6253 6225 c0 -8 4 -12 9 -9 5 3 6 10 3 15 -9 13 -12 11 -12 -6z"/>
<path d="M6255 6191 c-3 -5 -2 -12 3 -15 5 -3 9 1 9 9 0 17 -3 19 -12 6z"/>
<path d="M6716 5227 c3 -10 9 -15 12 -12 3 3 0 11 -7 18 -10 9 -11 8 -5 -6z"/>
<path d="M10475 3959 c-4 -6 -5 -12 -2 -15 2 -3 7 2 10 11 7 17 1 20 -8 4z"/>
</g>
</svg>
